<svg xmlns="http://www.w3.org/2000/svg" viewBox="0 0 167.7 183.2"><path d="M0,135.2v-48h14.5v88.3l-5.4,2.7c-2.9,1.5-6.2,3.2-7.2,3.8L0,183.2v-48ZM50.8,121.9v-34.5c0,0,7.4,0,7.4,0h7.3c0,0,0,30.9,0,30.9v31c0,0-7,3.6-7,3.6-3.8,2-7.1,3.6-7.3,3.6h-.5s0-34.5,0-34.5ZM101.7,108.8v-21.5h14.5v35.8l-7.1,3.7c-3.9,2-7.2,3.7-7.2,3.7s-.2-9.7-.2-21.5h0ZM152.8,95.6v-8.4h14.8v9.4l-7,3.6c-3.8,2-7.2,3.6-7.4,3.7h-.5c0,.1,0-8.2,0-8.2ZM145.2,56c-4.3-.9-9.7-3.5-12.9-6.1-6.7-5.5-9.6-15.3-7.9-26.5,2-13.2,9.2-20.7,22.3-22.9,6.2-1.1,14.9-.5,19.4,1.2l1,.4-.2,4.1c-.1,2.2-.3,4.3-.4,4.7l-.2.6-2.3-1.1c-5.8-2.6-14.7-2.3-19.6.8-2.1,1.3-5.4,5-6.4,7.2-.5,1.1-1.2,2.9-1.5,4.1-.7,2.8-.7,9.2,0,11.9,1.8,6.8,7.2,12,13.9,13.3,3,.6,9.2.2,12.7-.7,1.5-.4,3-.8,3.3-.8h.5c0-.1,0,3.1,0,3.1,0,1.8.2,3.5.3,3.8.1.3.3.8.3,1.2v.6c0,0-1.8.5-1.8.5-3.3.9-6.4,1.3-11.8,1.2h-5.3s-3.4-.7-3.4-.7ZM.3,55.9c-.1-.1,4.6-12.5,10.6-27.6L21.7.9h6.3c0-.1,6.3-.2,6.3-.2l4.3,11c11.9,30,17,42.9,17.2,43.7l.3.8h-6.2c0,0-6.2-.2-6.2-.2l-2.4-6.2-2.4-6.2h-22.3l-.2.4c-.1.2-1.3,3-2.5,6.2l-2.3,5.8h-5.6c-3.1.2-5.7.1-5.8,0h0ZM35.8,34.6s-1.1-3.1-2.4-6.8c-1.3-3.7-3.1-8.7-3.9-11.1s-1.6-4.4-1.7-4.4c-.2,0-7.9,21.6-7.9,22.2,0,.2,3.6.3,8,.3s8,0,8,0h0ZM63.4,55.8c0-.3,21-53.6,21.4-54.5l.3-.6h12.2l.3.5c.2.2,5.1,12.5,10.9,27.2l10.8,27.3.2.5h-6.3c0,0-6.3-.2-6.3-.2l-2.4-6.2-2.4-6.2h-11.3s-11.3,0-11.3,0l-1.1,2.8-2.4,6.3-1.4,3.5h-5.7c-3.2,0-5.7-.1-5.7-.2h0ZM98.9,34.3c0-.5-7.2-20.8-7.6-21.7l-.3-.5-.2.5c-5.4,15.2-7.7,21.8-7.5,21.9.1.1,3.7.2,7.9.2h7.7v-.4Z"/></svg>